<svg version="1.2" xmlns="http://www.w3.org/2000/svg" viewBox="0 0 24 24" width="100" height="100">
	<title>twitter-svg</title>
	<style>
		.s0 { fill: #1d9bf0 } 
	</style>
	<g id="Layer">
		<path id="Layer" class="s0" d="m21.3 7.3q0 0.4 0 0.7c0 6.1-4.7 13.2-13.2 13.2-2.7 0-5.1-0.8-7.2-2.1q0.6 0.1 1.1 0.1c2.2 0 4.2-0.8 5.8-2-2-0.1-3.7-1.4-4.3-3.3q0.4 0.1 0.9 0.1 0.6 0 1.2-0.1c-2.1-0.5-3.8-2.3-3.8-4.6v-0.1q1 0.6 2.2 0.6c-1.3-0.8-2.1-2.2-2.1-3.9 0-0.8 0.2-1.6 0.6-2.3 2.3 2.8 5.7 4.7 9.6 4.9q-0.1-0.5-0.1-1.1c0-2.6 2.1-4.6 4.7-4.6 1.3 0 2.5 0.5 3.4 1.4q1.6-0.3 2.9-1.1c-0.3 1.1-1.1 2-2 2.6q1.4-0.2 2.6-0.8-0.9 1.5-2.3 2.4z"/>
	</g>
</svg>